<?xml version="1.0" standalone="no"?><!DOCTYPE svg PUBLIC "-//W3C//DTD SVG 1.1//EN" "http://www.w3.org/Graphics/SVG/1.1/DTD/svg11.dtd"><svg t="1608887184566" class="icon" viewBox="0 0 1024 1024" version="1.1" xmlns="http://www.w3.org/2000/svg" p-id="29841" xmlns:xlink="http://www.w3.org/1999/xlink" width="200" height="200"><defs><style type="text/css"></style></defs><path d="M75.776 531.456h825.856L578.048 855.04c-7.68 7.68-7.168 19.456 0 26.624 7.68 7.68 19.456 7.168 27.136 0l353.28-353.28c5.12-3.584 8.704-8.704 8.704-15.36 0-4.608-2.048-8.704-4.608-12.288l-1.024-1.024L605.184 143.36c-7.168-7.168-19.456-7.168-26.624 0-7.68 7.68-7.68 19.456 0 26.624l324.096 324.096H75.776c-10.752 0-18.944 8.704-18.944 18.944 0 9.728 8.704 18.432 18.944 18.432z" fill="" p-id="29842"></path></svg>