<?xml version="1.0" standalone="no"?><!DOCTYPE svg PUBLIC "-//W3C//DTD SVG 1.1//EN" "http://www.w3.org/Graphics/SVG/1.1/DTD/svg11.dtd"><svg t="1608262558229" class="icon" viewBox="0 0 1024 1024" version="1.1" xmlns="http://www.w3.org/2000/svg" p-id="1427" xmlns:xlink="http://www.w3.org/1999/xlink" width="200" height="200"><defs><style type="text/css"></style></defs><path d="M686.752 711.91466667a30.28266667 30.28266667 0 0 1-9.248-1.45066667L224.39466667 565.68533333a30.496 30.496 0 0 1-19.72266667-38.25066666l113.90933333-356.512a96.36266667 96.36266667 0 0 1 120.82133334-62.304l327.95733333 104.78933333a96.36266667 96.36266667 0 0 1 62.304 120.82133333L715.73333333 690.74133333a30.57066667 30.57066667 0 0 1-29.00266666 21.17333334zM410.25066667 121.12a79.50933333 79.50933333 0 0 0-75.41333334 54.99733333L220.928 532.62933333a13.41866667 13.41866667 0 0 0 8.66133333 16.8L682.66666667 694.208a13.44 13.44 0 0 0 16.8-8.66133333l113.94133333-356.512a79.296 79.296 0 0 0-51.2-99.37066667l-328-104.78933333a78.67733333 78.67733333 0 0 0-23.95733333-3.75466667z" fill="#515151" p-id="1428"></path><path d="M553.13066667 843.47733333l-319.40266667-0.50133333-1.06666667-0.27733333c-25.29066667-6.60266667-45.38666667-22.32533333-58.13333333-45.48266667-15.46666667-28.096-18.45333333-64.384-8.01066667-97.06666667L216.064 545.06666667 696.53333333 698.66666667l-27.552 75.88266666c-14.28266667 44.43733333-55.41333333 68.928-115.85066666 68.928z m-317.17333334-17.568l317.19466667 0.50133334c37.09866667 0 84.512-9.93066667 99.63733333-57.248l0.10666667-0.32 21.54666667-59.34933334-447.31733334-142.93333333-44.34133333 138.77333333c-8.91733333 27.89333333-6.4 59.94666667 6.69866667 83.648 10.26133333 18.63466667 26.31466667 31.392 46.47466666 36.928z" fill="#515151" p-id="1429"></path><path d="M227.776 827.01866667h595.744v17.06666666H227.776z" fill="#515151" p-id="1430"></path></svg>