<?xml version="1.0" standalone="no"?><!DOCTYPE svg PUBLIC "-//W3C//DTD SVG 1.1//EN" "http://www.w3.org/Graphics/SVG/1.1/DTD/svg11.dtd"><svg t="1608262570812" class="icon" viewBox="0 0 1024 1024" version="1.1" xmlns="http://www.w3.org/2000/svg" p-id="1565" xmlns:xlink="http://www.w3.org/1999/xlink" width="200" height="200"><defs><style type="text/css"></style></defs><path d="M783.68 83.84c-44.16 0-84.48 16.32-112.32 44.16L148.16 656 83.84 944l288-64.32L896 347.84c27.84-27.84 44.16-68.16 44.16-112.32C940.16 152 872 83.84 783.68 83.84zM336.32 840.32l-136.32 31.68 0-48-48 0 31.68-136.32 151.68 0L335.36 840.32zM371.84 816.32L371.84 668.48c0-12.48-7.68-20.16-20.16-20.16l-144 0 419.52-420.48 168 164.16L371.84 816.32zM868.16 320l-44.16 44.16L659.84 200l44.16-44.16c0 0 31.68-36.48 84.48-36.48 64.32 0 116.16 51.84 116.16 116.16C899.84 272 888.32 299.84 868.16 320z" fill="#515151" p-id="1566"></path></svg>