<?xml version="1.0" standalone="no"?><!DOCTYPE svg PUBLIC "-//W3C//DTD SVG 1.1//EN" "http://www.w3.org/Graphics/SVG/1.1/DTD/svg11.dtd"><svg t="1608259260802" class="icon" viewBox="0 0 1024 1024" version="1.1" xmlns="http://www.w3.org/2000/svg" p-id="3729" xmlns:xlink="http://www.w3.org/1999/xlink" width="200" height="200"><defs><style type="text/css"></style></defs><path d="M889.749333 304.917333l-170.666666-170.666666A21.333333 21.333333 0 0 0 704 128H234.666667a106.773333 106.773333 0 0 0-106.666667 106.666667v554.666666a106.773333 106.773333 0 0 0 106.666667 106.666667h554.666666a106.773333 106.773333 0 0 0 106.666667-106.666667V320a21.333333 21.333333 0 0 0-6.250667-15.082667zM597.333333 170.666667v128H298.666667V170.666667zM298.666667 853.333333V512h426.666666v341.333333z m554.666666-64a64.064 64.064 0 0 1-64 64h-21.333333V490.666667a21.333333 21.333333 0 0 0-21.333333-21.333334H277.333333a21.333333 21.333333 0 0 0-21.333333 21.333334v362.666666h-21.333333a64.064 64.064 0 0 1-64-64V234.666667a64.064 64.064 0 0 1 64-64h21.333333v149.333333a21.333333 21.333333 0 0 0 21.333333 21.333333h341.333334a21.333333 21.333333 0 0 0 21.333333-21.333333V170.666667h55.168L853.333333 328.832z" fill="#646464" p-id="3730"></path><path d="M618.666667 597.333333H405.333333a21.333333 21.333333 0 0 0 0 42.666667h213.333334a21.333333 21.333333 0 0 0 0-42.666667zM618.666667 725.333333H405.333333a21.333333 21.333333 0 0 0 0 42.666667h213.333334a21.333333 21.333333 0 0 0 0-42.666667z" fill="#646464" p-id="3731"></path></svg>