<?xml version="1.0" standalone="no"?><!DOCTYPE svg PUBLIC "-//W3C//DTD SVG 1.1//EN" "http://www.w3.org/Graphics/SVG/1.1/DTD/svg11.dtd"><svg t="1608258506001" class="icon" viewBox="0 0 1024 1024" version="1.1" xmlns="http://www.w3.org/2000/svg" p-id="2652" xmlns:xlink="http://www.w3.org/1999/xlink" width="200" height="200"><defs><style type="text/css"></style></defs><path d="M896.512 229.888C814.336 147.712 705.024 102.4 588.8 102.4s-225.536 45.2608-307.712 127.488S153.6 421.376 153.6 537.6v66.2016L43.7248 493.9264a25.6 25.6 0 0 0-36.1984 36.1984l153.6 153.6a25.4976 25.4976 0 0 0 36.2496 0l153.6-153.6a25.6 25.6 0 0 0-36.1984-36.1984l-109.8752 109.8752V537.6c0-211.7632 172.2368-384 384-384s384 172.2368 384 384-172.2368 384-384 384a25.6 25.6 0 0 0 0 51.2c116.224 0 225.536-45.2608 307.712-127.488s127.488-191.488 127.488-307.712c0-116.224-45.2608-225.536-127.488-307.712z" fill="" p-id="2653"></path></svg>