<?xml version="1.0" standalone="no"?><!DOCTYPE svg PUBLIC "-//W3C//DTD SVG 1.1//EN" "http://www.w3.org/Graphics/SVG/1.1/DTD/svg11.dtd"><svg class="icon" width="200px" height="200.00px" viewBox="0 0 1024 1024" version="1.1" xmlns="http://www.w3.org/2000/svg"><path fill="#333333" d="M520.4 884.9H214c-49.6 0-90-40.4-90-90v-580c0-49.6 40.4-90 90-90h580c49.6 0 90 40.4 90 90v303.3c0 16.6-13.4 30-30 30s-30-13.4-30-30V214.9c0-16.5-13.5-30-30-30H214c-16.5 0-30 13.5-30 30v580c0 16.5 13.5 30 30 30h306.4c16.6 0 30 13.4 30 30s-13.4 30-30 30z m325.8-122.8H615.6c-16.6 0-30-13.4-30-30s13.4-30 30-30h230.7c16.6 0 30 13.4 30 30s-13.5 30-30.1 30zM730.9 877.4c-16.6 0-30-13.4-30-30V616.8c0-16.6 13.4-30 30-30s30 13.4 30 30v230.7c0 16.5-13.4 29.9-30 29.9zM327.8 429.1c-45 0-81.7-36.6-81.7-81.7 0-45 36.6-81.7 81.7-81.7s81.7 36.6 81.7 81.7c0 45-36.7 81.7-81.7 81.7z m0-117.4c-19.7 0-35.7 16-35.7 35.7s16 35.7 35.7 35.7 35.7-16 35.7-35.7-16-35.7-35.7-35.7zM157 678.2c-8.9 0-17.7-3.9-23.6-11.5-10.2-13-8-31.9 5.1-42.1l162.6-127.7c13-10.2 31.9-8 42.1 5.1 10.2 13 8 31.9-5.1 42.1L175.5 671.8c-5.5 4.3-12 6.4-18.5 6.4z m329.5-13.5c-6.2 0-12.5-1.9-17.9-5.9L308.3 539.5c-13.3-9.9-16-28.7-6.2-42s28.7-16 42-6.2l160.3 119.3c13.3 9.9 16 28.7 6.2 42-5.9 7.9-14.9 12.1-24.1 12.1z m0 0c-8.6 0-17.2-3.7-23.1-10.9-10.6-12.8-8.8-31.7 4-42.2l367.5-304c12.8-10.6 31.7-8.8 42.2 4 10.6 12.8 8.8 31.7-4 42.2l-367.5 304c-5.5 4.7-12.3 6.9-19.1 6.9z" /></svg>